<?xml version="1.0" encoding="utf-8"?>
<!-- Generator: Adobe Illustrator 16.0.0, SVG Export Plug-In . SVG Version: 6.00 Build 0)  -->
<!DOCTYPE svg PUBLIC "-//W3C//DTD SVG 1.1//EN" "http://www.w3.org/Graphics/SVG/1.1/DTD/svg11.dtd">
<svg version="1.1" id="Fundraising_-_Desktop" xmlns="http://www.w3.org/2000/svg" xmlns:xlink="http://www.w3.org/1999/xlink"
	 x="0px" y="0px" width="42.4px" height="37.409px" viewBox="0 0 42.4 37.409" enable-background="new 0 0 42.4 37.409"
	 xml:space="preserve">
<g>
	<g>
		<path fill="#FFFFFF" d="M16.729,27.213c-0.16,0-0.322-0.055-0.453-0.167l-4.53-3.857c-0.156-0.133-0.246-0.328-0.246-0.533
			s0.091-0.4,0.246-0.533l4.53-3.857c0.294-0.25,0.735-0.215,0.986,0.079c0.25,0.294,0.215,0.736-0.079,0.987l-3.903,3.324
			l3.903,3.324c0.294,0.25,0.329,0.692,0.079,0.986C17.124,27.13,16.927,27.213,16.729,27.213z"/>
		<path fill="#FFFFFF" d="M25.671,27.213c-0.197,0-0.395-0.083-0.533-0.247c-0.25-0.294-0.215-0.736,0.079-0.986l3.903-3.324
			l-3.903-3.324c-0.294-0.25-0.329-0.692-0.079-0.987c0.251-0.294,0.693-0.33,0.986-0.079l4.53,3.857
			c0.156,0.133,0.246,0.328,0.246,0.533s-0.09,0.4-0.246,0.533l-4.53,3.857C25.993,27.158,25.831,27.213,25.671,27.213z"/>
		<path fill="#FFFFFF" d="M19.597,30.106c-0.048,0-0.097-0.005-0.146-0.015c-0.378-0.08-0.62-0.451-0.54-0.83l2.822-13.403
			c0.08-0.378,0.451-0.62,0.83-0.541c0.378,0.08,0.62,0.451,0.54,0.829L20.28,29.551C20.211,29.88,19.921,30.106,19.597,30.106z"/>
		<path fill="#FFFFFF" d="M37.7,37.409h-33c-2.592,0-4.7-2.108-4.7-4.7V4.7C0,2.109,2.108,0,4.7,0h33c2.592,0,4.7,2.109,4.7,4.7
			v28.009C42.4,35.301,40.292,37.409,37.7,37.409z M4.7,1.4c-1.819,0-3.3,1.48-3.3,3.3v28.009c0,1.819,1.48,3.3,3.3,3.3h33
			c1.819,0,3.3-1.48,3.3-3.3V4.7c0-1.819-1.48-3.3-3.3-3.3H4.7z"/>
		<path fill="#FFFFFF" d="M41.7,11.209h-41c-0.387,0-0.7-0.313-0.7-0.7c0-0.386,0.313-0.7,0.7-0.7h41c0.387,0,0.7,0.314,0.7,0.7
			C42.4,10.896,42.087,11.209,41.7,11.209z"/>
		<path fill="#FFFFFF" d="M11.96,7.859c-1.221,0-2.215-0.994-2.215-2.215c0-1.222,0.994-2.215,2.215-2.215
			c1.222,0,2.216,0.994,2.216,2.215C14.176,6.865,13.182,7.859,11.96,7.859z M11.96,4.829c-0.449,0-0.814,0.366-0.814,0.815
			c0,0.449,0.365,0.815,0.814,0.815c0.45,0,0.815-0.366,0.815-0.815C12.775,5.195,12.41,4.829,11.96,4.829z"/>
		<path fill="#FFFFFF" d="M5.154,7.838c-1.222,0-2.216-0.994-2.216-2.215c0-1.222,0.994-2.215,2.216-2.215s2.215,0.994,2.215,2.215
			C7.369,6.844,6.376,7.838,5.154,7.838z M5.154,4.808c-0.449,0-0.815,0.366-0.815,0.815s0.366,0.815,0.815,0.815
			S5.97,6.072,5.97,5.623S5.604,4.808,5.154,4.808z"/>
		<path fill="#FFFFFF" d="M18.767,7.881c-1.221,0-2.215-0.994-2.215-2.215s0.994-2.215,2.215-2.215c1.222,0,2.215,0.994,2.215,2.215
			S19.988,7.881,18.767,7.881z M18.767,4.85c-0.449,0-0.814,0.366-0.814,0.815s0.365,0.815,0.814,0.815s0.815-0.365,0.815-0.815
			S19.216,4.85,18.767,4.85z"/>
	</g>
</g>
</svg>
