<?xml version="1.0" encoding="utf-8"?>
<!-- Generator: Adobe Illustrator 16.0.0, SVG Export Plug-In . SVG Version: 6.00 Build 0)  -->
<!DOCTYPE svg PUBLIC "-//W3C//DTD SVG 1.1//EN" "http://www.w3.org/Graphics/SVG/1.1/DTD/svg11.dtd">
<svg version="1.1" id="Fundraising_-_Desktop" xmlns="http://www.w3.org/2000/svg" xmlns:xlink="http://www.w3.org/1999/xlink"
	 x="0px" y="0px" width="252.32px" height="273.599px" viewBox="0 0 252.32 273.599" enable-background="new 0 0 252.32 273.599"
	 xml:space="preserve">
<g opacity="0.5">
	<circle fill="#06004D" cx="3.04" cy="3.039" r="3.04"/>
	<circle fill="#06004D" cx="30.399" cy="3.039" r="3.041"/>
	<circle fill="#06004D" cx="57.759" cy="3.039" r="3.041"/>
	<circle fill="#06004D" cx="85.12" cy="3.039" r="3.041"/>
	<circle fill="#06004D" cx="112.479" cy="3.039" r="3.041"/>
	<circle fill="#06004D" cx="139.839" cy="3.039" r="3.04"/>
	<circle fill="#06004D" cx="167.199" cy="3.039" r="3.04"/>
	<circle fill="#06004D" cx="194.56" cy="3.039" r="3.04"/>
	<circle fill="#06004D" cx="221.919" cy="3.039" r="3.039"/>
	<circle fill="#06004D" cx="249.279" cy="3.039" r="3.041"/>
	<circle fill="#06004D" cx="3.04" cy="27.359" r="3.04"/>
	<circle fill="#06004D" cx="30.399" cy="27.359" r="3.041"/>
	<circle fill="#06004D" cx="57.759" cy="27.359" r="3.041"/>
	<circle fill="#06004D" cx="85.12" cy="27.359" r="3.041"/>
	<circle fill="#06004D" cx="112.479" cy="27.359" r="3.041"/>
	<circle fill="#06004D" cx="139.839" cy="27.359" r="3.04"/>
	<circle fill="#06004D" cx="167.199" cy="27.359" r="3.04"/>
	<circle fill="#06004D" cx="194.56" cy="27.359" r="3.04"/>
	<circle fill="#06004D" cx="221.919" cy="27.359" r="3.039"/>
	<circle fill="#06004D" cx="249.279" cy="27.359" r="3.041"/>
	<circle fill="#06004D" cx="3.04" cy="51.68" r="3.04"/>
	<circle fill="#06004D" cx="30.399" cy="51.68" r="3.041"/>
	<circle fill="#06004D" cx="57.759" cy="51.68" r="3.041"/>
	<circle fill="#06004D" cx="85.12" cy="51.68" r="3.041"/>
	<circle fill="#06004D" cx="112.479" cy="51.68" r="3.041"/>
	<circle fill="#06004D" cx="139.839" cy="51.68" r="3.04"/>
	<circle fill="#06004D" cx="167.199" cy="51.68" r="3.04"/>
	<circle fill="#06004D" cx="194.56" cy="51.68" r="3.04"/>
	<circle fill="#06004D" cx="221.919" cy="51.68" r="3.039"/>
	<circle fill="#06004D" cx="249.279" cy="51.68" r="3.041"/>
	<circle fill="#06004D" cx="3.04" cy="76" r="3.04"/>
	<circle fill="#06004D" cx="30.399" cy="76" r="3.041"/>
	<circle fill="#06004D" cx="57.759" cy="76" r="3.041"/>
	<circle fill="#06004D" cx="85.12" cy="76" r="3.041"/>
	<circle fill="#06004D" cx="112.479" cy="76" r="3.041"/>
	<circle fill="#06004D" cx="139.839" cy="76" r="3.04"/>
	<circle fill="#06004D" cx="167.199" cy="76" r="3.04"/>
	<circle fill="#06004D" cx="194.56" cy="76" r="3.04"/>
	<circle fill="#06004D" cx="221.919" cy="76" r="3.039"/>
	<circle fill="#06004D" cx="249.279" cy="76" r="3.041"/>
	<circle fill="#06004D" cx="3.04" cy="100.319" r="3.04"/>
	<circle fill="#06004D" cx="30.399" cy="100.319" r="3.041"/>
	<circle fill="#06004D" cx="57.759" cy="100.319" r="3.041"/>
	<circle fill="#06004D" cx="85.12" cy="100.319" r="3.041"/>
	<circle fill="#06004D" cx="112.479" cy="100.319" r="3.041"/>
	<circle fill="#06004D" cx="139.839" cy="100.319" r="3.04"/>
	<circle fill="#06004D" cx="167.199" cy="100.319" r="3.04"/>
	<circle fill="#06004D" cx="194.56" cy="100.319" r="3.04"/>
	<circle fill="#06004D" cx="221.919" cy="100.319" r="3.039"/>
	<circle fill="#06004D" cx="249.279" cy="100.319" r="3.041"/>
	<circle fill="#06004D" cx="3.04" cy="124.64" r="3.04"/>
	<circle fill="#06004D" cx="30.399" cy="124.64" r="3.041"/>
	<circle fill="#06004D" cx="57.759" cy="124.64" r="3.041"/>
	<circle fill="#06004D" cx="85.12" cy="124.64" r="3.041"/>
	<circle fill="#06004D" cx="112.479" cy="124.64" r="3.041"/>
	<circle fill="#06004D" cx="139.839" cy="124.64" r="3.04"/>
	<circle fill="#06004D" cx="167.199" cy="124.64" r="3.04"/>
	<circle fill="#06004D" cx="194.56" cy="124.64" r="3.04"/>
	<circle fill="#06004D" cx="221.919" cy="124.64" r="3.039"/>
	<circle fill="#06004D" cx="249.279" cy="124.64" r="3.041"/>
	<circle fill="#06004D" cx="3.04" cy="148.959" r="3.04"/>
	<circle fill="#06004D" cx="30.399" cy="148.959" r="3.041"/>
	<circle fill="#06004D" cx="57.759" cy="148.959" r="3.041"/>
	<circle fill="#06004D" cx="85.12" cy="148.959" r="3.041"/>
	<circle fill="#06004D" cx="112.479" cy="148.959" r="3.041"/>
	<circle fill="#06004D" cx="139.839" cy="148.959" r="3.04"/>
	<circle fill="#06004D" cx="167.199" cy="148.959" r="3.04"/>
	<circle fill="#06004D" cx="194.56" cy="148.959" r="3.04"/>
	<circle fill="#06004D" cx="221.919" cy="148.959" r="3.039"/>
	<circle fill="#06004D" cx="249.279" cy="148.959" r="3.041"/>
	<circle fill="#06004D" cx="3.04" cy="173.279" r="3.04"/>
	<circle fill="#06004D" cx="30.399" cy="173.279" r="3.041"/>
	<circle fill="#06004D" cx="57.759" cy="173.279" r="3.041"/>
	<circle fill="#06004D" cx="85.12" cy="173.279" r="3.041"/>
	<circle fill="#06004D" cx="112.479" cy="173.279" r="3.041"/>
	<circle fill="#06004D" cx="139.839" cy="173.279" r="3.04"/>
	<circle fill="#06004D" cx="167.199" cy="173.279" r="3.04"/>
	<circle fill="#06004D" cx="194.56" cy="173.279" r="3.04"/>
	<circle fill="#06004D" cx="221.919" cy="173.279" r="3.039"/>
	<circle fill="#06004D" cx="249.279" cy="173.279" r="3.041"/>
	<circle fill="#06004D" cx="3.04" cy="197.6" r="3.04"/>
	<circle fill="#06004D" cx="30.399" cy="197.6" r="3.041"/>
	<circle fill="#06004D" cx="57.759" cy="197.6" r="3.041"/>
	<circle fill="#06004D" cx="85.12" cy="197.6" r="3.041"/>
	<circle fill="#06004D" cx="112.479" cy="197.6" r="3.041"/>
	<circle fill="#06004D" cx="139.839" cy="197.6" r="3.04"/>
	<circle fill="#06004D" cx="167.199" cy="197.6" r="3.04"/>
	<circle fill="#06004D" cx="194.56" cy="197.6" r="3.04"/>
	<circle fill="#06004D" cx="221.919" cy="197.6" r="3.039"/>
	<circle fill="#06004D" cx="249.279" cy="197.6" r="3.041"/>
	<circle fill="#06004D" cx="3.04" cy="221.92" r="3.04"/>
	<circle fill="#06004D" cx="30.399" cy="221.92" r="3.041"/>
	<circle fill="#06004D" cx="57.759" cy="221.92" r="3.041"/>
	<circle fill="#06004D" cx="85.12" cy="221.92" r="3.041"/>
	<circle fill="#06004D" cx="112.479" cy="221.92" r="3.041"/>
	<circle fill="#06004D" cx="139.839" cy="221.92" r="3.04"/>
	<circle fill="#06004D" cx="167.199" cy="221.92" r="3.04"/>
	<circle fill="#06004D" cx="194.56" cy="221.92" r="3.04"/>
	<circle fill="#06004D" cx="221.919" cy="221.92" r="3.039"/>
	<circle fill="#06004D" cx="249.279" cy="221.92" r="3.041"/>
	<circle fill="#06004D" cx="3.04" cy="246.24" r="3.04"/>
	<circle fill="#06004D" cx="30.399" cy="246.24" r="3.041"/>
	<circle fill="#06004D" cx="57.759" cy="246.24" r="3.041"/>
	<circle fill="#06004D" cx="85.12" cy="246.24" r="3.041"/>
	<circle fill="#06004D" cx="112.479" cy="246.24" r="3.041"/>
	<circle fill="#06004D" cx="139.839" cy="246.24" r="3.04"/>
	<circle fill="#06004D" cx="167.199" cy="246.24" r="3.04"/>
	<circle fill="#06004D" cx="194.56" cy="246.24" r="3.04"/>
	<circle fill="#06004D" cx="221.919" cy="246.24" r="3.039"/>
	<circle fill="#06004D" cx="249.279" cy="246.24" r="3.041"/>
	<circle fill="#06004D" cx="3.04" cy="270.56" r="3.04"/>
	<circle fill="#06004D" cx="30.399" cy="270.56" r="3.041"/>
	<circle fill="#06004D" cx="57.759" cy="270.56" r="3.041"/>
	<circle fill="#06004D" cx="85.12" cy="270.56" r="3.041"/>
	<circle fill="#06004D" cx="112.479" cy="270.56" r="3.041"/>
	<circle fill="#06004D" cx="139.839" cy="270.56" r="3.04"/>
	<circle fill="#06004D" cx="167.199" cy="270.56" r="3.04"/>
	<circle fill="#06004D" cx="194.56" cy="270.56" r="3.04"/>
	<circle fill="#06004D" cx="221.919" cy="270.56" r="3.039"/>
	<circle fill="#06004D" cx="249.279" cy="270.56" r="3.041"/>
</g>
</svg>
